<svg width="550" height="240" xmlns="http://www.w3.org/2000/svg" data-name="Layer 1">

 <g>
  <title>Layer 1</title>
  <path id="svg_15" fill="#e6e6e6" d="m380.30914,44.70621a0.78188,0.78188 0 1 1 0,-1.56375l51.75557,0a24.73488,24.73488 0 0 1 23.92992,-18.90433a34.39771,34.39771 0 0 1 62.4781,-7.33771c0.76908,-0.05994 1.52356,-0.0901 2.249,-0.0901a29.20187,29.20187 0 0 1 29.04408,27.05923a0.78181,0.78181 0 0 1 -0.72527,0.83475c-0.01862,0.00134 -0.03713,0.00191 -0.05555,0.00191a0.78183,0.78183 0 0 1 -0.77911,-0.72709l-167.89674,0.72709z"/>
  <path id="svg_16" fill="#e6e6e6" d="m539.68222,54.73124l-128.22743,0a0.78188,0.78188 0 0 1 0,-1.56375l128.22743,0a0.78188,0.78188 0 0 1 0,1.56375z"/>
  <circle id="svg_20" fill="#e4e4e4" r="102.33179" cy="138.13469" cx="102.33179"/>
  <path id="svg_63" fill="#e6e6e6" d="m236.30914,119.70621a0.78188,0.78188 0 1 1 0,-1.56375l51.75557,0a24.73488,24.73488 0 0 1 23.92992,-18.90433a34.39771,34.39771 0 0 1 62.4781,-7.33771c0.76908,-0.05994 1.52356,-0.0901 2.249,-0.0901a29.20187,29.20187 0 0 1 29.04408,27.05923a0.78181,0.78181 0 0 1 -0.72527,0.83475c-0.01862,0.00134 -0.03713,0.00191 -0.05555,0.00191a0.78183,0.78183 0 0 1 -0.77911,-0.72709l-167.89674,0.72709z"/>
  <path id="svg_64" fill="#e6e6e6" d="m298.72977,141.06842l-43.0031,0a0.78188,0.78188 0 0 1 0,-1.56375l43.0031,0a0.78188,0.78188 0 1 1 0,1.56375z"/>
  <path id="svg_65" fill="#3f3d56" d="m323.10865,33.79118l6.50237,-5.20066c-5.05142,-0.55731 -7.127,2.19763 -7.97639,4.37816c-3.94636,-1.63868 -8.24245,0.50889 -8.24245,0.50889l13.01006,4.72312a9.84517,9.84517 0 0 0 -3.29359,-4.40951z"/>
  <path id="svg_66" fill="#3f3d56" d="m346.24454,169.04711l6.50236,-5.20066c-5.05142,-0.55731 -7.127,2.19763 -7.97638,4.37817c-3.94637,-1.63868 -8.24246,0.50888 -8.24246,0.50888l13.01006,4.72313a9.84523,9.84523 0 0 0 -3.29358,-4.40952z"/>
  <path id="svg_67" fill="#3f3d56" d="m498.40746,118.32614l6.50236,-5.20067c-5.05142,-0.5573 -7.12694,2.19763 -7.97638,4.37817c-3.94636,-1.63868 -8.24246,0.50889 -8.24246,0.50889l13.01006,4.72312a9.84507,9.84507 0 0 0 -3.29358,-4.40951z"/>
 </g>
</svg>