<svg width="320" height="497" xmlns="http://www.w3.org/2000/svg" data-name="Layer 1">

 <g>
  <title>Layer 1</title>
  <polygon id="svg_1" fill="#ffb6b6" points="54.6486873626709,404.4917555387847 50.54068565368652,424.80471330245655 126.93369102478027,450.3187819059722 132.99767875671387,420.3387404020659 54.6486873626709,404.4917555387847 "/>
  <path id="svg_2" fill="#2f2e41" d="m62.32899,400.65232l-8.09119,40.00293l-0.00033,0.00162a26.01065,26.01065 0 0 1 -30.64977,20.3355l-0.82841,-0.1676l13.24784,-65.49629l26.32186,5.32384z"/>
  <circle fill="#feb8b8" r="51.871" cy="72.82376" cx="141.21806" data-name="Ellipse 276" id="fd4e5ab9-ffc8-4bbb-9267-3af70c31dae1"/>
  <path fill="#2f2e41" d="m189.66609,28.07375a59.90714,59.90714 0 0 0 -34.08105,-26.052l-6.368,4.647l0,-6.034a55.143,55.143 0 0 0 -10.3,-0.6l-5.494,4.971l0,-4.558a59.33506,59.33506 0 0 0 -40.932,24.347c-11.931,17.2 -13.945,41.129 -2.21,58.467c3.221,-9.9 7.131,-19.189 10.353,-29.088a29.29917,29.29917 0 0 0 7.633,0.037l3.919,-9.145l1.095,8.758c12.148,-1.058 30.166,-3.382 41.682,-5.511l-1.12,-6.719l6.7,5.583c3.528,-0.812 5.623,-1.549 5.45,-2.112c8.565,13.808 19.047,22.627 27.611,36.435c3.25303,-19.46998 6.99705,-35.65901 -3.93795,-53.426z" data-name="Path 1461" id="a8c9bbe2-1461-49cf-8211-f8d251166dc5-1984"/>
  <ellipse fill="#2f2e41" ry="37.359" rx="133.56" cy="374.89775" cx="158.09506" data-name="Ellipse 260" id="f6be96d1-713f-4c17-812c-ecd79c56fe95"/>
  <path id="svg_3" fill="#6c63ff" d="m252.77788,206.2118c-1.78369,-10.731 -3.62354,-21.668 -8.61084,-31.335c-3.27784,-6.332 -8.481,-12.366 -15.49512,-13.618a14.98964,14.98964 0 0 1 -4.03467,-0.934c-2.05517,-0.99 -29.67334,-16.756 -34.063,-19.502c-3.769,-2.35736 -9.71875,-6.72223 -12.71875,-6.72223c-3.01806,-0.06634 -14.59082,2.62708 -59.76025,-0.90381a163.14109,163.14109 0 0 0 -22.01025,10.82172c-0.14551,-0.09589 -46.88184,25.00134 -48.6377,24.9353c-3.3252,-0.14 -6.416,1.989 -8.32227,4.67005c-1.90576,2.681 -2.7998,6 -3.73584,9.209c10.208,22.733 19.54786,45.495 29.75684,68.228a5.82135,5.82135 0 0 1 0.73828,2.8a6.83358,6.83358 0 0 1 -1.27,2.8c-5.00635,8.042 -4.84717,18.157 -4.30029,27.609c0.54736,9.452 1.22412,19.436 -3,27.908c-1.14893,2.326 -2.64307,4.455 -3.73584,6.781c-2.55908,5.268 -3.48389,22.117 -1.98926,27.777l187.2666,5.3648c-4.02637,-11.06803 13.92236,-145.88883 13.92236,-145.88883z"/>
  <path fill="#fbbebe" d="m19.20206,252.06873a33.06266,33.06266 0 0 0 -0.112,8.154l2.684,38.546c0.252,3.633 0.5,7.257 0.841,10.881c0.644,7.033 1.606,14.01 2.8,20.977a3.736,3.736 0 0 0 3.829,3.633c11.815,2.5 24.022,2.4 36.08,1.719c18.4,-1.027 65.474,-2.97 68.35,-6.706s1.2,-9.779 -2.55,-12.8s-65.871,-10.386 -65.871,-10.386c0.607,-4.81 2.438,-9.34 4.175,-13.907c3.12,-8.1 6.034,-16.466 6.09,-25.143s-3.213,-17.8 -10.321,-22.771c-5.847,-4.081 -13.375,-4.838 -20.5,-4.67c-5.184,0.149 -14.141,-1.093 -18.876,0.934c-3.74699,1.65003 -5.919,7.87006 -6.619,11.539z" data-name="Path 1421" id="eb41f72e-aba6-4a16-bf55-c7027d2f1a4b-1985"/>
  <path fill="#2f2e41" d="m253.11005,339.20179c3.11,-1.186 6.538,-0.757 9.872,-0.308c10.732,1.466 21.622,2.97 31.569,7.257c4.67,2 9.116,4.67 12.273,8.6c2.8,3.54 4.436,7.874 5.987,12.142l3.587,9.826a47.30032,47.30032 0 0 1 3.129,11.516c1.121,11.759 -6.921,22.845 -17.036,28.954s-22.023,8.284 -33.624,10.563s-23.247,4.8 -34.8,7.472a140.08632,140.08632 0 0 1 -16.373,3.222c-12.366,1.4 -25.292,-0.663 -37.042,3.428c-4.67,1.635 -9.256,4.063 -14.1,5.193a87.74454,87.74454 0 0 1 -9.751,1.485l-22.238,2.54a121.31294,121.31294 0 0 1 -13.636,1.046c-9.713,0 -19.268,-2.3 -28.7,-4.6a7.25771,7.25771 0 0 1 -2.8,-1.13c-1.494,-1.177 -1.821,-3.26 -2.036,-5.146q-1.429,-12.525 -2.5,-25.077c-0.224,-2.718 -0.392,-5.66 1.093,-7.948c1.868,-2.8 5.511,-3.68 8.836,-4.222a230.57994,230.57994 0 0 1 42.665,-2.961c5.426,-5.426 14.374,-5.454 21.482,-8.406a63.89712,63.89712 0 0 0 7.575,-4.119a99.00057,99.00057 0 0 1 41.59,-13.141a38.71437,38.71437 0 0 0 8.509,-1.214c5.5,-1.709 10.517,-6.361 16.167,-5.221c0.7,-1.933 1.186,-4.521 2.8,-5.847c0.8,-0.682 1.793,-1.139 2.531,-1.868c1.56,-1.578 1.7,-4.063 1.466,-6.267s-0.757,-4.464 -0.187,-6.613a9.14077,9.14077 0 0 1 1.037,-2.307c2.792,-4.83203 7.02302,-7.31604 12.655,-6.849z" data-name="Path 1423" id="a363f2f7-2464-40a1-ad01-344825aa0b75-1986"/>
  <path fill="#6c63ff" d="m34.84906,183.52475a9.66706,9.66706 0 0 0 -2.073,3.316a156.78038,156.78038 0 0 0 -13.169,53.816a5.38,5.38 0 0 1 -0.607,2.606a11.40276,11.40276 0 0 1 -1.373,1.485a5.156,5.156 0 0 0 0.61662,7.26557q0.12733,0.10739 0.26138,0.20642c1.541,-2.9 5.23,-3.848 8.509,-4.1c15.7,-1.242 31.036,6.062 46.783,5.511c-1.111,-3.839 -2.709,-7.528 -3.615,-11.413c-4.007,-17.251 5.987,-36.033 -0.14,-52.649c-1.224,-3.325 -3.269,-6.594 -6.491,-8.051a17.29051,17.29051 0 0 0 -4.156,-1.1c-3.979,-0.719 -11.9,-3.792 -15.747,-2.559c-1.42,0.458 -1.98,1.793 -3.157,2.6c-1.788,1.14203 -4.15999,1.56201 -5.642,3.06601z" data-name="Path 1430" id="b53ad979-99f4-4c6e-a0f8-957060c42096-1987"/>
  <path fill="#fbbebe" d="m252.88995,240.52973c-4.735,-2.027 -13.692,-0.785 -18.876,-0.934c-7.125,-0.168 -14.653,0.589 -20.5,4.67c-7.108,4.971 -10.377,14.094 -10.321,22.771s2.97,17.043 6.09,25.143c1.737,4.567 3.568,9.097 4.175,13.907c0,0 -62.121,7.365 -65.871,10.386s-5.426,9.064 -2.55,12.8s92.615,7.487 104.43,4.987a3.736,3.736 0 0 0 3.829,-3.633c1.194,-6.967 2.156,-13.944 2.8,-20.977c0.341,-3.624 0.589,-7.248 0.841,-10.881l2.684,-38.546a33.06364,33.06364 0 0 0 -0.112,-8.154c-0.69998,-3.66894 -2.87199,-9.88897 -6.619,-11.539z" data-name="Path 1421" id="a1197c30-bfd4-4098-bcf9-2468e7a33bf1-1988"/>
  <path fill="#6c63ff" d="m238.21995,180.45874c-1.177,-0.807 -1.737,-2.142 -3.157,-2.6c-3.847,-1.233 -11.768,1.84 -15.747,2.559a17.29056,17.29056 0 0 0 -4.156,1.1c-3.222,1.457 -5.267,4.726 -6.491,8.051c-6.127,16.616 3.867,35.398 -0.14,52.649c-0.906,3.885 -2.504,7.574 -3.615,11.413c15.747,0.551 31.083,-6.753 46.783,-5.511c3.279,0.252 6.968,1.2 8.509,4.1q0.134,-0.099 0.26138,-0.20642a5.156,5.156 0 0 0 0.61663,-7.26557a11.40137,11.40137 0 0 1 -1.373,-1.485a5.37993,5.37993 0 0 1 -0.607,-2.606a156.78014,156.78014 0 0 0 -13.169,-53.816a9.66706,9.66706 0 0 0 -2.073,-3.316c-1.482,-1.504 -3.854,-1.92398 -5.64201,-3.06601z" data-name="Path 1430" id="ebe46053-6aac-4aa7-8615-21a6fa79538d-1989"/>
  <polygon id="svg_4" fill="#ffb6b6" points="264.48168754577637,433.4887648161284 261.75167655944824,454.0317946012847 181.21369743347168,453.2767897184722 185.24369621276855,422.9567823942534 264.48168754577637,433.4887648161284 "/>
  <path id="svg_5" fill="#2f2e41" d="m285.09182,430.89571l-8.804,66.24017l-0.83783,-0.11132a26.01064,26.01064 0 0 1 -22.35645,-29.20839l0.00022,-0.00163l5.3773,-40.45722l26.62076,3.53839z"/>
  <path fill="#2f2e41" d="m76.00807,348.59773c0,0.934 -1.466,0 -1.6,-1c-1.027,-7.556 -7.024,-13.786 -14.01,-16.812s-14.944,-3.185 -22.509,-2.466c-11.441,1.083 -24.284,5.464 -28.468,16.158c-0.99,2.5 -10.264,24.76 -9.359,29.766c2.438,13.356 11.572,24.779 22.64,32.69s24,12.637 36.9,16.9a639.94948,639.94948 0 0 0 104.607,24.984c5.753,0.869 11.563,1.672 17.073,3.521c4.931,1.653 9.545,4.128 14.365,6.071c11.208,4.5 23.266,6.108 35.211,7.687c2.036,0.262 4.371,0.448 5.875,-0.934c1.943,-1.8 1.3,-4.941 0.747,-7.528a40.488,40.488 0 0 1 4.773,-28.729c2,-3.362 4.6,-6.809 4.222,-10.7c-0.448,-4.539 -4.969,-7.752 -9.471,-8.481s-9.078,0.346 -13.6,0.934a7.285,7.285 0 0 1 -4.623,-0.458a9.23483,9.23483 0 0 1 -1.812,-1.606a20.482,20.482 0 0 0 -23.854,-3.334c-1.672,0.934 -4.2,-1.149 -5.94,-1.933l-19.642,-8.892c-22.565,-10.208 -45.242,-20.464 -69.115,-26.927a14.51449,14.51449 0 0 1 -5.324,-2.214c-1.186,-0.934 -2.036,-2.2 -3.129,-3.241c-2.382,-2.251 -5.7,-3.148 -8.555,-4.745s-6.05601,-5.50799 -5.402,-8.711z" data-name="Path 1427" id="a0b0f7ea-4ed9-4447-aa64-e2335b2c3196-1990"/>
  <circle id="svg_6" fill="#fbbebe" r="14" cy="322.1006" cx="125.85551"/>
  <circle id="svg_7" fill="#fbbebe" r="14" cy="322.1006" cx="156.85551"/>
  <path id="svg_8" fill="#3f3d56" d="m243.27407,353.64773l-192.33887,0a8.4798,8.4798 0 0 1 -8.47021,-8.46972l0,-116.68653a8.4798,8.4798 0 0 1 8.47021,-8.46972l192.33887,0a8.4798,8.4798 0 0 1 8.47021,8.46972l0,116.68653a8.4798,8.4798 0 0 1 -8.47021,8.46972z"/>
  <circle fill="#fff" r="5.604" cy="286.83477" cx="146.63807" data-name="Ellipse 263" id="e793da3b-cee2-4a15-ae11-6dab45a6c728"/>
 </g>
</svg>