<svg width="327" height="279" xmlns="http://www.w3.org/2000/svg" data-name="Layer 1">

 <g>
  <title>Layer 1</title>
  <circle id="svg_24" fill="#fff" r="17.90945" cy="134.68135" cx="109.6819"/>
  <path id="svg_25" fill="#ffb6b6" d="m105.69122,158.87274a7.74428,7.74428 0 0 0 -10.20256,3.54711a7.43134,7.43134 0 0 0 -0.43951,1.14687l-26.96921,1.61166l-3.997,13.97247l36.7058,-6.20206a7.7228,7.7228 0 0 0 8.48718,-4.10633a7.39069,7.39069 0 0 0 -3.40108,-9.88319q-0.09121,-0.04454 -0.18362,-0.08653z"/>
  <path id="svg_26" fill="#6c63ff" d="m46.16219,89.95302l0,0a13.37259,13.37259 0 0 0 -18.04487,9.16224l-7.41461,29.9431l1.39472,52.38373s38.702,7.42638 45.19914,2.65273s5.88706,-8.32722 6.4971,-4.77365s3.39869,5.0447 3.43741,3.631s0.35417,-1.17209 1.97323,-1.59791s8.76491,-3.05958 8.76491,-3.05958l0.32,-14.93516s-11.81354,-4.47869 -14.67963,-3.14244s0.61,3.55357 -2.86608,1.33624s-3.856,-9.21572 -4.45033,-2.90852s-2.3343,7.48153 -4.94046,4.677s-14.68055,-1.01308 -14.68055,-1.01308l7.68342,-58.22987a13.37258,13.37258 0 0 0 -8.1934,-14.12583z"/>
  <polygon id="svg_27" fill="#ffb6b6" points="306.79683542251587,245.29665195941925 307.20381784439087,234.2666836977005 264.8518280982971,227.44765293598175 264.2518219947815,243.7266446352005 306.79683542251587,245.29665195941925 "/>
  <path id="svg_28" fill="#2f2e41" d="m299.10891,248.6175l-0.40158,-17.66077l7.55,0.27858l12.18888,-16.32676a4.71924,4.71924 0 0 1 8.498,2.997l-0.7741,20.97961l-7.60155,3.34059l7.416,1.68749l-0.29187,7.91015l-26.58378,-3.20589z"/>
  <path id="svg_29" fill="#2f2e41" d="m68.43744,270.59109l134.14313,-15.59872s57.92747,3.34588 71.51863,-5.49564l14.33237,-1.80941l0.7768,-21.05266s-8.76425,0.06463 -13.80315,-2.28315s-1.5369,-5.2206 -6.34117,-2.39583s-4.29677,3.16449 -8.01127,1.86626s-174.05,-8.26107 -174.05,-8.26107l-18.56534,55.03022z"/>
  <polygon id="svg_30" fill="#ffb6b6" points="245.20281076431274,261.4556485414505 253.00282907485962,253.64565098285675 226.59282541275024,219.84267246723175 215.08083200454712,231.36867344379425 245.20281076431274,261.4556485414505 "/>
  <path id="svg_31" fill="#2f2e41" d="m237.30808,258.66158l11.71713,-13.22018l5.34542,5.33917l20.03985,-3.67914a4.71923,4.71923 0 0 1 4.19152,7.97679l-14.83624,14.8536l-7.84469,-2.721l4.289,6.28091l-5.59385,5.6004l-17.30814,-20.43055z"/>
  <path id="svg_32" fill="#2f2e41" d="m15.51421,197.12579l1.33359,30.99956c1.56994,36.49347 41.75932,58.58065 72.92311,39.52662q0.86156,-0.52677 1.72887,-1.09132s11.81428,-3.17271 11.45565,-8.19723s2.52757,-7.4699 5.08175,-6.09972s35.99612,-46.09043 35.99612,-46.09043s69.48152,34.65878 84.80968,42.8177l16.17348,-4.40663s6.08708,2.87491 3.89443,-1.283s-2.58585,-2.16655 -3.25951,-6.69673s-2.39688,-10.14673 -3.44173,-9.91051s-85.957,-59.1949 -85.957,-59.1949s-13.83321,-14 -30.9928,-4.75634c-0.3574,1.35782 -0.05185,1.40513 -0.05185,1.40513l-56.68436,46.18863l-8.00942,-15.21084l-45.00001,2.00001z"/>
  <path id="svg_33" fill="#6c63ff" d="m53.6129,83.22294l-24.30372,-11.39046l-7.2761,12.6606s-19.54183,27.88665 -19.8253,48.00476s3.18465,26.10071 3.18465,26.10071s-8.42568,6.29921 -4.21284,10.14961s13.53954,5.51181 6.37619,7.1811s-5.348,18.56858 2.652,21.56858s50.96418,2.97375 50.96418,2.97375a7.65139,7.65139 0 0 1 1.88976,-7.53446c3.33071,-3.33858 6.33071,-0.9429 3.33071,-6.14074s-8,-2.19784 -4,-9.19784s3.99854,-9.09184 3.99854,-9.09184s8.15437,-15.51893 -4.12807,-32.35468c-0.74869,-1.02624 -0.11917,-1.06581 -0.11917,-1.06581l-9.918,-33.2357l1.38717,-18.62758z"/>
  <path id="svg_34" fill="#2f2e41" d="m14.44625,35.32965c0.20559,5.13373 -3.02967,12.407 -4.6229,16.79273c-1.70331,4.6889 5.67924,10.91292 10.40462,12.27588a6.98917,6.98917 0 0 1 2.28864,-4.19665a11.96706,11.96706 0 0 0 -0.08724,4.70808l39.94785,9.09437c7.18664,-8.32238 14.41277,-20.28686 12.83655,-34.71671a14.03973,14.03973 0 0 0 -6.761,-14.00008l-20.1955,-11.93054c-8.59021,-1.95561 -19.408,-3.13636 -25.61265,2.17895a24.57545,24.57545 0 0 0 -8.19837,19.79397z"/>
  <circle id="svg_35" fill="#ffb6b6" r="23" cy="46.60724" cx="50.15373"/>
  <path id="svg_36" fill="#2f2e41" d="m23.20908,34.3196l-1.10988,4.87526l19.40355,4.41734a7.15592,7.15592 0 0 1 2.38608,-5.21032a12.19175,12.19175 0 0 0 0.13928,5.78523c10.46445,5.872 19.89624,7.95233 28.35369,6.4549a4.43086,4.43086 0 0 0 5.30385,-3.33675l0,0c3.40288,-14.94742 -5.51208,-30.22473 -20.38619,-33.93493a27.99693,27.99693 0 0 0 -34.09038,20.94929l0,-0.00002z"/>
  <path id="svg_37" fill="#2f2e41" d="m34.55359,2.15411c2.55851,-0.55537 5.26612,-0.42114 7.57949,-2.15411l-1.51712,3.48248a17.626,17.626 0 0 1 12.58531,1.257a6.7302,6.7302 0 0 1 2.8492,2.41205a4.95656,4.95656 0 0 1 0.37479,4.26923a4.64131,4.64131 0 0 1 -2.71808,2.58135a8.96267,8.96267 0 0 1 -3.32585,0.34819q-7.08317,-0.165 -14.16625,-0.33012a10.59127,10.59127 0 0 1 -5.22462,-1.01528a5.21975,5.21975 0 0 1 -2.42395,-5.18324c0.45041,-3.16575 3.42859,-5.11225 5.98708,-5.66755z"/>
  <path id="svg_38" fill="#ccc" d="m159.31845,182.41435a0.98062,0.98062 0 0 0 -0.18816,-0.17287a2.01234,2.01234 0 0 0 -0.61614,-0.48219l-1.6832,-0.90095l-11.17325,-12.4049a2.80646,2.80646 0 0 0 -2.09816,-0.2007l-0.02874,0.0087l-4.78642,1.48028l-4.11644,1.27747l-5.75023,1.78243l-39.16614,12.12765l-25.7448,7.97084a2.785,2.785 0 0 0 -1.8295,3.448a2.89846,2.89846 0 0 0 0.58784,1.04447l0.81928,0.91173l1.71831,1.91427l3.98114,8.25041l1.10458,1.23285a2.775,2.775 0 0 0 2.86591,0.80414l84.81461,-23.58471a2.82416,2.82416 0 0 0 1.28951,-4.50691l0,-0.00001z"/>
  <path id="svg_39" fill="#ccc" d="m154.28296,59.70897l-1.64243,0.2662a1.72823,1.72823 0 0 0 -1.11942,0.69471l-0.72375,1.01191l-6.5272,16.32176a1.72814,1.72814 0 0 0 -0.29667,1.28843l0.7647,4.65037l-2.89028,83.00559a1.74786,1.74786 0 0 0 0.64654,1.08405l12.67291,16.95222l0.29589,0.23506l0.63823,0.49974a1.75568,1.75568 0 0 0 1.14665,0.36459l1.077,-0.05133a1.73016,1.73016 0 0 0 1.26549,-0.64526a1.70389,1.70389 0 0 0 0.35943,-1.36986l-3.67651,-122.88808a1.72477,1.72477 0 0 0 -1.98213,-1.42151l-0.00845,0.00141z"/>
  <polygon id="svg_40" fill="#6c63ff" points="151.5328278541565,66.15868198871613 145.75081491470337,83.771688580513 143.51381540298462,154.12566196918488 152.51381540298462,162.12566196918488 151.5328278541565,66.15868198871613 "/>
  <path id="svg_41" fill="#ffb6b6" d="m106.81955,173.47527a7.74428,7.74428 0 0 0 -10.20256,3.54712a7.43055,7.43055 0 0 0 -0.43951,1.14687l-26.96922,1.61166l-3.997,13.97246l36.70579,-6.20206a7.7228,7.7228 0 0 0 8.48719,-4.10633a7.3907,7.3907 0 0 0 -3.401,-9.88321q-0.09128,-0.04451 -0.18369,-0.08651z"/>
  <path stroke="null" id="svg_42" fill="#6c63ff" d="m48.91383,104.55555l0,0a13.17472,13.37258 0 0 0 -17.77788,9.16225l-7.3049,29.94309l1.37407,52.38373s38.12943,7.42639 44.53039,2.65274s5.79996,-8.32722 6.40097,-4.77365s3.3484,5.04469 3.38655,3.631s0.34892,-1.1721 1.94403,-1.59792s8.63523,-3.05957 8.63523,-3.05957l0.31527,-14.93517s-11.63875,-4.47868 -14.46243,-3.14244s0.60097,3.55357 -2.82367,1.33624s-3.79895,-9.21572 -4.38448,-2.90851s-2.29976,7.48152 -4.86736,4.677s-14.46334,-1.01309 -14.46334,-1.01309l7.56974,-58.22986a13.17474,13.3726 0 0 0 -8.07217,-14.12584z"/>
 </g>
</svg>