<svg xmlns="http://www.w3.org/2000/svg" viewBox="0 0 48 48">
  <path d="M30 5C22.838262 5 17 10.838262 17 18C17 18.882345 17.182742 19.703331 17.351562 20.527344L5.4394531 32.439453 A 1.50015 1.50015 0 0 0 5 33.5L5 41.5 A 1.50015 1.50015 0 0 0 6.5 43L14.5 43 A 1.50015 1.50015 0 0 0 16 41.5L16 39L19.5 39 A 1.50015 1.50015 0 0 0 21 37.5L21 34L24.5 34 A 1.50015 1.50015 0 0 0 26 32.5L26 30.294922C27.271145 30.709396 28.595703 31 30 31C37.161738 31 43 25.161738 43 18C43 10.838262 37.161738 5 30 5 z M 30 8C35.540262 8 40 12.459738 40 18C40 23.540262 35.540262 28 30 28C28.262518 28 26.639202 27.56058 25.21875 26.785156 A 1.50015 1.50015 0 0 0 23 28.101562L23 31L19.5 31 A 1.50015 1.50015 0 0 0 18 32.5L18 36L14.5 36 A 1.50015 1.50015 0 0 0 13 37.5L13 40L8 40L8 34.121094L19.988281 22.132812 A 1.50015 1.50015 0 0 0 20.373047 20.669922C20.133878 19.809089 20 18.919659 20 18C20 12.459738 24.459738 8 30 8 z M 32 13 A 3 3 0 0 0 32 19 A 3 3 0 0 0 32 13 z" fill="#595756" />
</svg>